<?xml version="1.0" encoding="UTF-8" ?>
<!DOCTYPE svg PUBLIC "-//W3C//DTD SVG 1.1//EN" "http://www.w3.org/Graphics/SVG/1.1/DTD/svg11.dtd">
<svg width="490pt" height="490pt" viewBox="0 0 490 490" version="1.1" xmlns="http://www.w3.org/2000/svg">
<g id="#0078d6ff">
<path fill="#0078d6" opacity="1.00" d=" M 429.38 0.00 L 429.78 0.00 C 429.84 58.58 429.79 117.15 429.80 175.73 C 363.56 175.74 297.32 175.73 231.07 175.73 C 231.06 126.85 231.08 77.96 231.07 29.07 C 297.17 19.38 363.31 9.87 429.38 0.00 Z" />
<path fill="#0078d6" opacity="1.00" d=" M 63.00 52.52 C 113.00 45.70 163.00 38.83 212.99 31.92 C 213.01 80.28 213.00 128.64 213.00 177.00 C 163.00 177.00 113.00 177.00 63.00 177.00 C 62.99 135.51 63.01 94.01 63.00 52.52 Z" />
<path fill="#0078d6" opacity="1.00" d=" M 63.01 192.33 C 113.00 192.34 163.00 192.34 212.99 192.33 C 213.01 240.81 212.99 289.30 213.00 337.79 C 163.01 330.76 113.02 323.70 63.02 316.79 C 62.98 275.30 63.00 233.81 63.01 192.33 Z" />
<path fill="#0078d6" opacity="1.00" d=" M 231.07 194.27 C 297.32 194.27 363.56 194.27 429.80 194.27 C 429.81 252.28 429.81 310.30 429.80 368.31 C 363.57 358.87 297.32 349.49 231.07 340.15 C 231.07 291.52 231.06 242.89 231.07 194.27 Z" />
<path fill="#0078d6" opacity="1.00" d=" M 250.34 376.01 C 254.08 375.99 257.81 376.00 261.56 376.00 C 261.58 391.41 261.53 406.83 261.58 422.24 C 265.06 416.58 270.05 411.54 276.53 409.50 C 286.04 406.48 297.59 407.86 304.90 415.10 C 312.04 422.04 314.66 432.32 314.72 442.01 C 314.93 453.16 312.34 465.09 304.39 473.37 C 297.42 480.87 286.26 483.38 276.45 481.27 C 270.09 479.92 264.92 475.38 261.59 469.95 C 261.55 473.30 261.56 476.64 261.56 480.00 C 257.82 480.00 254.08 480.01 250.34 479.99 C 250.35 445.33 250.35 410.67 250.34 376.01 M 277.25 418.19 C 271.05 419.73 266.14 424.68 263.68 430.46 C 260.82 436.93 261.70 444.14 261.56 451.00 C 261.38 456.95 263.57 462.99 267.89 467.14 C 275.51 474.92 289.91 474.31 296.67 465.69 C 302.02 459.11 303.32 450.26 303.25 442.02 C 303.20 434.84 301.37 427.11 295.90 422.08 C 290.99 417.44 283.59 416.57 277.25 418.19 Z" />
<path fill="#0078d6" opacity="1.00" d=" M 366.34 376.01 C 370.08 375.99 373.82 375.99 377.57 376.01 C 377.56 410.67 377.56 445.33 377.57 479.99 C 373.82 480.01 370.08 480.00 366.34 479.99 C 366.35 445.33 366.35 410.67 366.34 376.01 Z" />
<path fill="#0078d6" opacity="1.00" d=" M 335.40 377.52 C 340.22 375.37 346.09 379.77 345.44 385.00 C 345.42 390.42 338.57 394.00 334.14 390.84 C 329.24 387.86 330.00 379.51 335.40 377.52 Z" />
<path fill="#0078d6" opacity="1.00" d=" M 43.87 382.01 C 48.92 381.99 53.97 381.99 59.03 382.00 C 67.79 401.90 76.55 421.80 85.30 441.71 C 88.28 448.55 91.50 455.31 93.83 462.42 C 96.39 455.61 99.15 448.88 102.25 442.30 C 111.30 422.21 120.38 402.12 129.41 382.02 C 134.21 381.98 139.01 382.00 143.80 382.01 C 143.80 414.67 143.80 447.33 143.80 479.99 C 139.99 480.00 136.18 480.01 132.37 479.99 C 132.38 460.65 132.37 441.31 132.37 421.98 C 132.20 412.85 132.64 403.74 133.30 394.65 C 132.21 398.13 131.45 401.72 129.94 405.06 C 118.85 430.04 107.72 455.00 96.64 479.99 C 94.77 479.99 92.89 479.99 91.02 480.00 C 79.96 455.30 68.93 430.59 57.89 405.89 C 56.26 402.28 55.45 398.39 54.42 394.59 C 55.47 423.04 54.68 451.53 54.93 480.00 C 51.24 480.00 47.55 480.00 43.87 479.99 C 43.86 447.33 43.86 414.67 43.87 382.01 Z" />
<path fill="#0078d6" opacity="1.00" d=" M 191.43 408.66 C 200.63 407.21 210.76 407.99 218.65 413.37 C 225.85 418.22 230.20 426.43 231.62 434.87 C 232.98 443.17 232.82 451.91 230.08 459.93 C 227.10 468.68 220.35 476.21 211.65 479.53 C 204.15 482.38 195.76 482.66 187.97 480.87 C 179.36 478.90 171.91 472.88 167.86 465.07 C 163.85 457.44 163.06 448.52 163.86 440.05 C 164.57 432.27 167.28 424.46 172.65 418.65 C 177.49 413.25 184.30 409.82 191.43 408.66 M 192.24 418.16 C 183.44 420.06 177.34 428.24 175.86 436.81 C 174.26 445.86 174.67 456.07 180.22 463.79 C 188.34 475.48 208.77 475.79 216.50 463.54 C 220.56 457.16 221.24 449.30 220.88 441.92 C 220.49 434.97 218.56 427.60 213.30 422.70 C 207.77 417.48 199.41 416.56 192.24 418.16 Z" />
<path fill="#0078d6" opacity="1.00" d=" M 408.15 415.16 C 419.69 404.98 440.27 405.27 449.88 417.96 C 456.34 426.31 456.87 437.37 456.60 447.50 C 440.12 447.51 423.64 447.49 407.15 447.51 C 407.22 456.26 410.54 466.05 418.89 470.14 C 429.61 475.13 442.64 471.99 451.76 465.03 C 451.75 468.50 451.76 471.97 451.74 475.44 C 443.67 480.98 433.53 482.46 423.94 481.84 C 416.08 481.34 408.30 477.79 403.36 471.54 C 396.70 463.33 395.16 452.23 395.68 441.97 C 396.12 431.87 400.31 421.74 408.15 415.16 M 419.51 419.23 C 412.38 422.69 408.34 430.38 407.29 437.99 C 419.91 438.01 432.53 438.00 445.15 437.99 C 445.03 432.61 443.98 426.89 440.31 422.73 C 435.30 416.89 426.21 416.10 419.51 419.23 Z" />
<path fill="#0078d6" opacity="1.00" d=" M 332.34 410.01 C 336.08 409.99 339.82 409.99 343.57 410.01 C 343.56 433.34 343.56 456.66 343.57 479.99 C 339.82 480.01 336.08 480.00 332.34 479.99 C 332.35 456.66 332.35 433.34 332.34 410.01 Z" />
</g>
</svg>
